<?xml version="1.0" encoding="UTF-8" standalone="no"?>
<!-- Created with Inkscape (http://www.inkscape.org/) -->

<svg
   width="110.06825mm"
   height="110.05346mm"
   viewBox="0 0 110.06825 110.05346"
   version="1.1"
   id="svg1"
   xml:space="preserve"
   inkscape:export-filename="play.svg"
   inkscape:export-xdpi="96"
   inkscape:export-ydpi="96"
   inkscape:version="1.3.2 (091e20e, 2023-11-25, custom)"
   sodipodi:docname="dibujo.svg"
   xmlns:inkscape="http://www.inkscape.org/namespaces/inkscape"
   xmlns:sodipodi="http://sodipodi.sourceforge.net/DTD/sodipodi-0.dtd"
   xmlns="http://www.w3.org/2000/svg"
   xmlns:svg="http://www.w3.org/2000/svg"><sodipodi:namedview
     id="namedview1"
     pagecolor="#ffffff"
     bordercolor="#000000"
     borderopacity="0.25"
     inkscape:showpageshadow="2"
     inkscape:pageopacity="0.0"
     inkscape:pagecheckerboard="0"
     inkscape:deskcolor="#d1d1d1"
     inkscape:document-units="mm"
     inkscape:zoom="1.3843855"
     inkscape:cx="496.24905"
     inkscape:cy="453.26969"
     inkscape:window-width="1920"
     inkscape:window-height="991"
     inkscape:window-x="-9"
     inkscape:window-y="-9"
     inkscape:window-maximized="1"
     inkscape:current-layer="layer1" /><defs
     id="defs1" /><g
     inkscape:label="Capa 1"
     inkscape:groupmode="layer"
     id="layer1"
     transform="translate(-89.049936,-25.01838)"><path
       style="fill:#000000"
       d="M 137.22508,134.82496 C 127.21485,133.54198 117.2222,129.2397 109.1702,122.7461 104.92067,119.31903 99.676573,113.25552 96.841414,108.4909 93.950572,103.63269 91.543494,97.659188 90.374434,92.442171 88.740686,85.151457 88.61154,76.626906 90.024794,69.363525 94.242988,47.684236 111.73138,30.197764 133.38862,26.004459 c 7.36391,-1.425809 15.73508,-1.300714 23.07865,0.344877 5.72714,1.283373 13.15977,4.443879 17.79948,7.568701 12.91636,8.699111 21.04343,20.92314 24.09343,36.239238 0.8159,4.097182 1.01348,12.711226 0.39446,17.197917 -0.85759,6.215939 -2.40149,11.275982 -5.16662,16.933338 -2.98432,6.10578 -6.31762,10.68952 -11.17613,15.36868 -8.88109,8.55326 -19.28136,13.52146 -31.77835,15.18051 -2.39717,0.31824 -10.88896,0.31016 -13.40846,-0.0128 z m 16.29026,-8.54935 c 9.38314,-1.97662 16.89614,-6.07387 23.80381,-12.98155 6.9377,-6.9377 10.97867,-14.367941 13.01935,-23.93905 0.64117,-3.007141 0.70915,-3.863032 0.71575,-9.011276 0.006,-4.432514 -0.10089,-6.272741 -0.48268,-8.334375 -1.71857,-9.279986 -5.88767,-17.548645 -12.16112,-24.119375 -4.54321,-4.758495 -8.41853,-7.598405 -14.04967,-10.295867 -6.13734,-2.939942 -11.48914,-4.264534 -18.27216,-4.52243 -8.17752,-0.310917 -14.94524,1.045615 -22.01797,4.413312 -5.46573,2.602523 -9.50965,5.487414 -13.58908,9.694309 -2.83054,2.91898 -4.0176,4.382887 -5.86696,7.235259 -5.41054,8.344965 -7.889884,17.407968 -7.52016,27.489211 0.452125,12.328066 4.98566,22.589182 13.92601,31.519882 6.97261,6.96508 14.90242,11.19411 24.25689,12.93638 4.1228,0.76787 4.2095,0.7738 9.88523,0.67662 4.27804,-0.0733 5.70488,-0.20325 8.35276,-0.76105 z M 125.05425,80.083336 V 55.737483 h 7.271 7.271 l 0.14648,0.595313 c 0.0806,0.327422 0.1126,11.251406 0.0712,24.275521 l -0.0753,23.680213 -7.34218,0.0703 -7.34219,0.0703 z m 23.48022,24.139044 c -0.0544,-0.10914 -0.0763,-0.34727 -0.0487,-0.52917 0.0276,-0.1819 0.0651,-11.046351 0.0833,-24.143226 l 0.0331,-23.812501 h 7.27605 7.27604 v 24.341668 24.341669 h -7.26043 c -3.99323,0 -7.30494,-0.0893 -7.35935,-0.19844 z"
       id="path1" /></g></svg>
