<?xml version="1.0" encoding="UTF-8" standalone="no"?>
<!-- Created with Inkscape (http://www.inkscape.org/) -->

<svg
   width="50.97197mm"
   height="50.529491mm"
   viewBox="0 0 50.97197 50.529491"
   version="1.1"
   id="svg1"
   xml:space="preserve"
   inkscape:export-filename="bitmap.svg"
   inkscape:export-xdpi="96"
   inkscape:export-ydpi="96"
   inkscape:version="1.3.2 (091e20e, 2023-11-25, custom)"
   sodipodi:docname="dibujo.svg"
   xmlns:inkscape="http://www.inkscape.org/namespaces/inkscape"
   xmlns:sodipodi="http://sodipodi.sourceforge.net/DTD/sodipodi-0.dtd"
   xmlns="http://www.w3.org/2000/svg"
   xmlns:svg="http://www.w3.org/2000/svg"><sodipodi:namedview
     id="namedview1"
     pagecolor="#ffffff"
     bordercolor="#000000"
     borderopacity="0.25"
     inkscape:showpageshadow="2"
     inkscape:pageopacity="0.0"
     inkscape:pagecheckerboard="0"
     inkscape:deskcolor="#d1d1d1"
     inkscape:document-units="mm"
     inkscape:zoom="1.3843855"
     inkscape:cx="496.24905"
     inkscape:cy="453.26969"
     inkscape:window-width="1920"
     inkscape:window-height="991"
     inkscape:window-x="-9"
     inkscape:window-y="-9"
     inkscape:window-maximized="1"
     inkscape:current-layer="layer1" /><defs
     id="defs1" /><g
     inkscape:label="Capa 1"
     inkscape:groupmode="layer"
     id="layer1"
     transform="translate(-94.920306,-82.910451)"><path
       style="fill:#000000"
       d="m 115.11938,132.91563 c -1.40353,-0.28645 -4.11034,-1.27323 -6.01514,-2.19286 -2.88916,-1.39488 -3.984,-2.18757 -6.60468,-4.78197 -2.645395,-2.61886 -3.404982,-3.6522 -4.810547,-6.54425 -3.74487,-7.70533 -3.691758,-15.03968 0.164926,-22.775028 1.217226,-2.44139 2.178361,-3.713893 4.677301,-6.192557 2.64073,-2.619315 3.69792,-3.384158 6.59076,-4.768211 7.66769,-3.66855 14.8921,-3.667095 22.58457,0.0045 2.91878,1.393145 3.95631,2.142785 6.59938,4.768212 2.61846,2.60098 3.41408,3.682068 4.82009,6.549514 2.69582,5.49791 3.3894,10.5573 2.21982,16.19274 -0.71638,3.45181 -1.65864,5.72033 -3.63496,8.75134 -5.69207,8.72969 -16.26052,13.09694 -26.59152,10.98852 z m 10.71674,-3.22963 c 7.52183,-1.75824 14.47353,-8.65187 16.24658,-16.11086 0.64729,-2.72306 0.72329,-7.45696 0.16308,-10.15754 -0.21857,-1.05364 -1.06044,-3.29848 -1.87082,-4.988536 -2.70182,-5.634642 -8.33966,-10.148141 -14.66898,-11.743588 -2.78456,-0.701911 -7.81659,-0.701911 -10.60115,0 -7.95193,2.004464 -14.36353,8.362507 -16.384884,16.248014 -0.303771,1.18505 -0.55231,3.55038 -0.55231,5.2563 0,1.70592 0.248539,4.07125 0.55231,5.2563 2.002414,7.81162 8.632334,14.43158 16.296254,16.27178 2.65864,0.63837 8.02018,0.62258 10.81992,-0.0319 z m -14.70616,-7.47782 c -0.48866,-0.69183 -0.5675,-2.65057 -0.5675,-14.09883 0,-12.813359 0.0264,-13.321582 0.72911,-14.018387 0.40101,-0.397659 0.85214,-0.717165 1.00252,-0.710013 0.66541,0.03165 23.93307,13.60952 24.29298,14.1762 0.29223,0.46012 0.29249,0.80516 9.5e-4,1.26528 -0.42267,0.66708 -23.70793,14.17085 -24.45554,14.18245 -0.23926,0.004 -0.69039,-0.3548 -1.00252,-0.7967 z"
       id="path1"
       sodipodi:nodetypes="csssssssssssccsssssssssscssssssscs" /></g></svg>
